<svg width="131" height="43" viewBox="0 0 131 43" fill="none" xmlns="http://www.w3.org/2000/svg">
<path d="M53.6021 17.3162C52.7744 17.3162 52.0096 17.1695 51.3077 16.8761C50.6162 16.5723 50.0085 16.148 49.4847 15.6032C48.9713 15.0584 48.5732 14.4193 48.2903 13.6859C48.0074 12.9525 47.866 12.151 47.866 11.2814C47.866 10.4013 48.0074 9.59459 48.2903 8.8612C48.5732 8.12781 48.9713 7.48871 49.4847 6.9439C49.998 6.3991 50.6057 5.98002 51.3077 5.68666C52.0096 5.38283 52.7744 5.23091 53.6021 5.23091C54.4089 5.23091 55.1318 5.37235 55.7709 5.65523C56.4204 5.93811 56.9653 6.3048 57.4053 6.75532C57.8558 7.20583 58.1754 7.68777 58.3639 8.20115L56.9495 8.84549C56.6771 8.19591 56.2528 7.67206 55.6766 7.27393C55.1003 6.86533 54.4089 6.66102 53.6021 6.66102C52.7849 6.66102 52.0568 6.85485 51.4177 7.2425C50.789 7.63015 50.2966 8.16972 49.9404 8.8612C49.5842 9.55269 49.4061 10.3594 49.4061 11.2814C49.4061 12.1929 49.5842 12.9944 49.9404 13.6859C50.2966 14.3774 50.789 14.9169 51.4177 15.3046C52.0568 15.6922 52.7849 15.8861 53.6021 15.8861C54.4089 15.8861 55.1003 15.687 55.6766 15.2889C56.2528 14.8803 56.6771 14.3512 56.9495 13.7016L58.3639 14.3459C58.1754 14.8593 57.8558 15.3412 57.4053 15.7918C56.9653 16.2423 56.4204 16.609 55.7709 16.8918C55.1318 17.1747 54.4089 17.3162 53.6021 17.3162ZM66.0535 17.3162C65.2258 17.3162 64.4505 17.1695 63.7276 16.8761C63.0047 16.5723 62.3708 16.148 61.826 15.6032C61.2917 15.0584 60.8726 14.4193 60.5688 13.6859C60.2649 12.942 60.113 12.1353 60.113 11.2657C60.113 10.3856 60.2649 9.57888 60.5688 8.84549C60.8726 8.11209 61.2917 7.47299 61.826 6.92819C62.3708 6.38338 62.9995 5.9643 63.7119 5.67094C64.4348 5.37759 65.2153 5.23091 66.0535 5.23091C66.8917 5.23091 67.667 5.38283 68.3794 5.68666C69.1023 5.98002 69.7309 6.3991 70.2653 6.9439C70.8101 7.47823 71.2344 8.11209 71.5382 8.84549C71.8525 9.57888 72.0097 10.3856 72.0097 11.2657C72.0097 12.1353 71.8525 12.942 71.5382 13.6859C71.2344 14.4193 70.8101 15.0584 70.2653 15.6032C69.7309 16.148 69.1023 16.5723 68.3794 16.8761C67.667 17.1695 66.8917 17.3162 66.0535 17.3162ZM66.0535 15.8861C66.7031 15.8861 67.295 15.7708 67.8294 15.5403C68.3637 15.2993 68.8247 14.9693 69.2123 14.5502C69.6105 14.1207 69.9143 13.6283 70.1238 13.073C70.3439 12.5072 70.4539 11.9048 70.4539 11.2657C70.4539 10.6266 70.3439 10.0294 70.1238 9.47411C69.9143 8.91882 69.6105 8.43164 69.2123 8.01256C68.8247 7.583 68.3637 7.25298 67.8294 7.02248C67.295 6.78151 66.7031 6.66102 66.0535 6.66102C65.4144 6.66102 64.8277 6.78151 64.2934 7.02248C63.759 7.25298 63.2928 7.583 62.8947 8.01256C62.507 8.43164 62.2032 8.91882 61.9832 9.47411C61.7632 10.0294 61.6532 10.6266 61.6532 11.2657C61.6532 11.9048 61.7632 12.5072 61.9832 13.073C62.2032 13.6283 62.507 14.1207 62.8947 14.5502C63.2928 14.9693 63.759 15.2993 64.2934 15.5403C64.8277 15.7708 65.4144 15.8861 66.0535 15.8861ZM74.2559 17.1276V5.41949H75.5446L82.2709 14.8803L81.6894 14.9431V5.41949H83.2452V17.1276H81.9565L75.2617 7.60396L75.796 7.54109V17.1276H74.2559ZM85.8584 17.1276V5.41949H93.4805V6.83389H87.3985V10.5428H93.1661V11.9572H87.3985V15.7132H93.4805V17.1276H85.8584ZM100.779 17.3162C99.9518 17.3162 99.187 17.1695 98.485 16.8761C97.7935 16.5723 97.1859 16.148 96.662 15.6032C96.1486 15.0584 95.7505 14.4193 95.4676 13.6859C95.1847 12.9525 95.0433 12.151 95.0433 11.2814C95.0433 10.4013 95.1847 9.59459 95.4676 8.8612C95.7505 8.12781 96.1486 7.48871 96.662 6.9439C97.1754 6.3991 97.783 5.98002 98.485 5.68666C99.187 5.38283 99.9518 5.23091 100.779 5.23091C101.586 5.23091 102.309 5.37235 102.948 5.65523C103.598 5.93811 104.143 6.3048 104.583 6.75532C105.033 7.20583 105.353 7.68777 105.541 8.20115L104.127 8.84549C103.854 8.19591 103.43 7.67206 102.854 7.27393C102.278 6.86533 101.586 6.66102 100.779 6.66102C99.9623 6.66102 99.2341 6.85485 98.595 7.2425C97.9664 7.63015 97.474 8.16972 97.1177 8.8612C96.7615 9.55269 96.5834 10.3594 96.5834 11.2814C96.5834 12.1929 96.7615 12.9944 97.1177 13.6859C97.474 14.3774 97.9664 14.9169 98.595 15.3046C99.2341 15.6922 99.9623 15.8861 100.779 15.8861C101.586 15.8861 102.278 15.687 102.854 15.2889C103.43 14.8803 103.854 14.3512 104.127 13.7016L105.541 14.3459C105.353 14.8593 105.033 15.3412 104.583 15.7918C104.143 16.2423 103.598 16.609 102.948 16.8918C102.309 17.1747 101.586 17.3162 100.779 17.3162ZM109.679 17.1276V6.83389H106.505V5.41949H114.362V6.83389H111.235V17.1276H109.679ZM113.933 17.1276L118.129 5.41949H119.952L124.148 17.1276H122.498L121.539 14.3774H116.541L115.583 17.1276H113.933ZM117.029 12.963H121.052L118.82 6.5353H119.26L117.029 12.963Z" fill="#3ABCAA"/>
<path d="M55.4048 36.6704C54.3258 36.6704 53.3209 36.4748 52.3902 36.0837C51.473 35.6925 50.6705 35.1462 49.9826 34.4448C49.2947 33.7435 48.7552 32.9207 48.364 31.9765C47.9863 31.0323 47.7975 30.0005 47.7975 28.881C47.7975 27.7614 47.9863 26.7296 48.364 25.7854C48.7417 24.8278 49.2745 24.005 49.9624 23.3171C50.6502 22.6157 51.4528 22.0762 52.37 21.6985C53.3007 21.3073 54.3123 21.1118 55.4048 21.1118C56.4974 21.1118 57.4753 21.2938 58.3385 21.658C59.2153 22.0222 59.9571 22.5078 60.5641 23.1148C61.171 23.7217 61.6027 24.3961 61.8589 25.138L59.0871 26.4733C58.8308 25.745 58.379 25.1447 57.7316 24.6726C57.0976 24.1871 56.322 23.9443 55.4048 23.9443C54.5146 23.9443 53.7323 24.1533 53.0579 24.5715C52.3835 24.9896 51.8574 25.5696 51.4798 26.3115C51.1156 27.0398 50.9335 27.8963 50.9335 28.881C50.9335 29.8656 51.1156 30.7288 51.4798 31.4707C51.8574 32.2126 52.3835 32.7925 53.0579 33.2107C53.7323 33.6288 54.5146 33.8379 55.4048 33.8379C56.322 33.8379 57.0976 33.6018 57.7316 33.1297C58.379 32.6442 58.8308 32.0372 59.0871 31.3088L61.8589 32.6442C61.6027 33.386 61.171 34.0604 60.5641 34.6674C59.9571 35.2744 59.2153 35.7599 58.3385 36.1241C57.4753 36.4883 56.4974 36.6704 55.4048 36.6704ZM63.8713 36.4276V21.3545H67.0073V33.6963H73.3805V36.4276H63.8713ZM74.9358 36.4276V21.3545H78.0718V36.4276H74.9358ZM80.7447 36.4276V21.3545H83.1523L91.2453 32.017L89.9504 32.3205V21.3545H93.0864V36.4276H90.6585L82.7072 25.6843L83.8807 25.3808V36.4276H80.7447ZM95.7609 36.4276V21.3545H98.8969V36.4276H95.7609ZM108.732 36.6704C107.653 36.6704 106.648 36.4748 105.717 36.0837C104.8 35.6925 103.998 35.1462 103.31 34.4448C102.622 33.7435 102.082 32.9207 101.691 31.9765C101.313 31.0323 101.125 30.0005 101.125 28.881C101.125 27.7614 101.313 26.7296 101.691 25.7854C102.069 24.8278 102.602 24.005 103.289 23.3171C103.977 22.6157 104.78 22.0762 105.697 21.6985C106.628 21.3073 107.639 21.1118 108.732 21.1118C109.825 21.1118 110.802 21.2938 111.666 21.658C112.542 22.0222 113.284 22.5078 113.891 23.1148C114.498 23.7217 114.93 24.3961 115.186 25.138L112.414 26.4733C112.158 25.745 111.706 25.1447 111.059 24.6726C110.425 24.1871 109.649 23.9443 108.732 23.9443C107.842 23.9443 107.059 24.1533 106.385 24.5715C105.711 24.9896 105.185 25.5696 104.807 26.3115C104.443 27.0398 104.261 27.8963 104.261 28.881C104.261 29.8656 104.443 30.7288 104.807 31.4707C105.185 32.2126 105.711 32.7925 106.385 33.2107C107.059 33.6288 107.842 33.8379 108.732 33.8379C109.649 33.8379 110.425 33.6018 111.059 33.1297C111.706 32.6442 112.158 32.0372 112.414 31.3088L115.186 32.6442C114.93 33.386 114.498 34.0604 113.891 34.6674C113.284 35.2744 112.542 35.7599 111.666 36.1241C110.802 36.4883 109.825 36.6704 108.732 36.6704ZM116.086 36.4276L121.184 21.3545H125.352L130.451 36.4276H127.031L126.02 33.3523H120.496L119.485 36.4276H116.086ZM121.366 30.6209H125.15L122.843 23.4992H123.693L121.366 30.6209Z" fill="#1E8CCB"/>
<path d="M14.3045 18.0177C12.4688 19.3591 11.8334 22.5185 11.7452 23.9305C10.4214 19.3416 12.0982 15.5468 15.8047 14.223C19.5113 12.8992 20.129 13.6933 24.9828 12.2813C29.6601 10.5163 28.5129 9.81031 30.7191 8.92794C32.4841 8.43373 33.1607 9.83987 33.2784 10.6047C33.4255 12.0167 33.5255 15.7409 32.7489 19.3415C31.7781 23.8423 29.2189 25.5191 25.3358 27.0194C22.2294 28.2196 18.6876 27.4018 17.305 26.8429L19.1583 26.6664C20.2173 26.5781 22.9178 26.0133 25.2476 24.4601C28.1599 22.5186 28.3364 21.6361 28.9541 19.3415C29.4483 17.5059 29.5719 15.1643 29.5719 14.223C29.5424 14.3995 29.06 14.9113 27.3656 15.5468C25.6712 16.5352 22.8354 16.7234 21.6293 16.694C19.9525 16.5763 16.1401 16.6763 14.3045 18.0177Z" fill="#3ABCAA"/>
<path d="M27.7108 4.67747L28.2403 9.09001C28.3874 8.17803 28.6992 6.01874 28.7698 4.67747C28.858 3.00087 28.5933 2.6477 27.9755 1.67677C27.4813 0.900023 25.8281 0.588283 25.0633 0.529505C22.4157 0.353004 16.8736 0 15.8852 0C14.6496 0 13.5024 0.617756 12.6199 1.67677C11.9139 2.52398 11.7374 3.79479 11.7374 4.32429V10.2371C11.7374 11.1548 11.0902 11.3843 10.7666 11.3844H4.23604C2.91228 11.3844 1.94152 12.0021 0.97076 13.1494C0.194152 14.0672 0 15.5322 0 16.1499C0.0588339 17.0618 0.194152 19.1857 0.264753 20.386C0.353004 21.8862 0.529505 25.2398 1.14726 27.1813C1.64147 28.7345 3.88302 29.0051 4.94203 28.9463L10.4136 28.0638C9.031 27.9167 5.93044 27.5872 4.58902 27.446C3.24761 27.3048 2.97109 26.2105 3.00051 25.681C3.14759 22.9452 3.44176 17.2442 3.44176 16.3264C3.44176 15.4086 4.44194 15.238 4.94203 15.2674H11.3843C13.8554 15.2674 15.1791 12.6787 15.5321 11.3844V4.32429C15.5321 3.47709 16.4146 3.20645 16.8559 3.17703C19.3269 3.03 24.569 2.7183 25.7692 2.6477C26.9694 2.5771 27.5637 3.97146 27.7108 4.67747Z" fill="#1F8BCB"/>
<path d="M15.1791 26.6708C15.7439 22.8584 20.0623 19.9049 22.1509 18.9047C20.6506 19.1696 17.2089 19.9636 14.6496 23.2289C12.6022 25.8411 12.0315 30.1419 12.0021 31.9658V37.6138C12.0021 38.8493 12.2669 39.4671 13.3259 40.7026C14.1731 41.691 15.6204 41.9969 16.2382 42.0264H23.7395C25.9458 42.0264 27.2695 42.1146 28.858 40.7026C30.1289 39.573 30.3289 38.3492 30.2701 37.8786V31.2598C30.2701 30.4125 30.6819 30.1419 30.8878 30.1125H34.8591C35.8593 30.1713 38.2479 30.0595 39.8012 29.1417C41.3544 28.2239 41.5662 26.406 41.4779 25.6118C41.3014 23.0525 40.9308 17.7044 40.8602 16.7866C40.7719 15.6393 40.2424 13.6979 38.7421 13.3449C37.5419 13.0625 35.1827 13.4037 34.1531 13.6097C34.2413 13.6097 34.7003 13.6273 35.8299 13.6979C37.2419 13.7862 38.0361 13.9627 38.7421 14.5804C39.3069 15.0746 39.2128 16.9044 39.0951 17.7575C38.9775 19.9931 38.7421 24.694 38.7421 25.6118C38.7421 26.5296 37.9185 26.7002 37.5066 26.6708H30.2701C28.9463 26.6708 27.799 27.6416 27.093 28.4358C26.5282 29.0712 26.387 30.4656 26.387 31.0833V37.1726C26.387 38.0199 25.8575 38.2905 25.5928 38.3199H16.5029C15.5145 38.3199 15.2085 37.7316 15.1791 37.4374C14.9438 35.437 14.6143 30.4832 15.1791 26.6708Z" fill="#1E8CCB"/>
<path d="M75.4351 19.2816L74.984 20.522H78.0285L78.7051 19.2816H75.4351Z" fill="#1E8CCB"/>
</svg>
